<svg xmlns="http://www.w3.org/2000/svg" fill="#ff0000" width="82" height="90.344" viewBox="0 0 82 90.344">
  <defs>
    <style>
      .cls-1 {
        fill-rule: evenodd;
      }
    </style>
  </defs>
  <path id="Forma_1" data-name="Forma 1" class="cls-1" d="M59.033,8.381a47,47,0,0,0,3.612-3.836A2,2,0,0,0,59.8,1.724,47.838,47.838,0,0,1,55.9,5.841,24.025,24.025,0,0,0,39.877,2.054a27.118,27.118,0,0,0-10.39,3.14C28.5,3.92,27.566,2.612,26.64,1.3A2.053,2.053,0,0,0,23.893.581a1.994,1.994,0,0,0-.721,2.729q1.444,2.049,2.963,4.041c-0.457-.6-6.411,6.905-6.843,7.642-1.26,2.142-5.463,10.358-2.853,12.383,1.115,0.864,3.329.256,4.676,0.262,2.1,0.009,4.2.084,6.291,0.137,4.3,0.109,8.6.252,12.907,0.381,8.475,0.252,16.951.481,25.43,0.417A1.851,1.851,0,0,0,67.6,27.157a1.975,1.975,0,0,0,.247-1.442C66.5,18.78,63.511,12.673,59.033,8.381ZM20.192,23.627c1.765-9.545,9.96-16.295,19.687-17.585,12.858-1.7,20.719,7.29,23.6,18.537C49.043,24.6,34.622,23.872,20.192,23.627Zm45.552,6.936c-15.732-.007-31.463-0.16-47.2-0.167a1.838,1.838,0,0,0-1.879,1.488,2,2,0,0,0-.464,1.172c-0.756,9.962-.238,19.952-0.67,29.924a2.056,2.056,0,0,0,.04.5,2.152,2.152,0,0,0,.032.361,8.84,8.84,0,0,0,9.607,7.341c-0.691.045,0.036,11.746,0.111,12.476,0.264,2.558.9,5.438,3.557,6.509,3.063,1.235,6.693-.495,8.7-2.813,3.625-4.179,3.3-10.51,3-15.658,0.992-.041,1.985-0.055,2.978-0.06-0.685,0-.538,11.058-0.3,12.133,1.055,4.8,5.667,8.229,10.463,6.4,4.674-1.785,5.712-6.2,5.5-10.691-0.121-2.537-.19-5.158-0.484-7.679a8.694,8.694,0,0,0,4.411-1.522c2.191-1.592,3.028-4.039,3.266-6.631a3.093,3.093,0,0,0,0-.332C67.219,53.3,67.552,43.272,67.58,33.228A1.964,1.964,0,0,0,65.743,30.564ZM62.4,63.314a2.02,2.02,0,0,0,.006.3c0,0.012,0,.02-0.006.031-0.328,3.565-2.947,4.44-6.193,4.157-1.822-.159-2.341,1.78-1.592,3.015C55.3,76.242,57.572,85.336,50.745,86.9c-6.634-2.044-3.173-12-3.076-17.1a1.911,1.911,0,0,0-2.459-1.87c-1.868.4-4.43-.291-6.41-0.125a2.825,2.825,0,0,0-.422.071A1.777,1.777,0,0,0,36.456,69.8c0.258,4.773,2.389,15.892-4.687,16.625-0.059.006-.11,0.023-0.168,0.034-5.155-2.684-2.218-12.918-2.343-17.49a1.938,1.938,0,0,0-1.931-1.918,2.143,2.143,0,0,0-.778-0.007,7.832,7.832,0,0,1-4.683-.288c-1.469-.7-2.017-2.2-2.327-3.687,0-.03.011-0.055,0.012-0.085,0.413-9.529-.03-19.071.587-28.589,14.471,0.015,28.941.135,43.41,0.154C63.5,44.149,63.167,53.74,62.4,63.314ZM80.558,28.377a2.158,2.158,0,0,0-.581-0.533,6.654,6.654,0,0,0-4-.953,2.326,2.326,0,0,0-.7-0.152,5.483,5.483,0,0,0-5.952,4.624,2.532,2.532,0,0,0-.034.492,2.009,2.009,0,0,0-.2.869,230.25,230.25,0,0,0,.5,23.109c0,0.02.008,0.036,0.01,0.056a2.332,2.332,0,0,0-.01.278,6.838,6.838,0,0,0,2.559,5.439,7.183,7.183,0,0,0,5.512.833c0.047,0,.1-0.016.143-0.023l0.018,0,0.01,0a2.527,2.527,0,0,0,.639-0.2,6.812,6.812,0,0,0,3.6-4.849,2.3,2.3,0,0,0,.049-0.413c0.006-.04.019-0.076,0.022-0.118C82.895,47.677,84,38.1,81.07,29.2A2.02,2.02,0,0,0,80.558,28.377ZM78.293,55.359c-0.056.307-.129,0.675-0.234,1.051-0.3,1.074-.865,2.222-2.04,2.241-4.452.072-2.854-17.195-2.954-20.09-0.067-1.958-.857-5.781.78-7.349,4.266-4.082,4.9,6.924,5,8.525A67.446,67.446,0,0,1,78.293,55.359ZM4.3,28.284C0,30.191.37,34.88,0.337,38.807c-0.051,6.011.146,12.03,0.593,18.023,0,0.02.008,0.036,0.01,0.056a2.333,2.333,0,0,0-.01.277c0.487,7.611,10.788,9.013,12.481,1.2a2.323,2.323,0,0,0,.05-0.413c0-.04.018-0.076,0.021-0.118,0.75-9.154,1.851-18.732-1.076-27.628C11.233,26.631,6.971,27.1,4.3,28.284ZM9.5,57.436a8.415,8.415,0,0,1-.25.887c-0.014.028-.027,0.057-0.048,0.1a5.044,5.044,0,0,1-.3.52q-0.2.292-.051,0.066a3.678,3.678,0,0,1-.386.378l-0.123.084c-0.049.033-.105,0.054-0.157,0.082-0.029,0-.057,0-0.086.01a3.258,3.258,0,0,1-2.4-.277,3.249,3.249,0,0,1-.748-2.123c0-.013,0-0.023-0.006-0.035a2.128,2.128,0,0,0,.006-0.3C4.457,50.907,4.6,45.026,4.41,39.1c-0.058-1.848-.835-5.574.854-6.979,4.429-3.686,4.83,7.134,4.942,8.859C10.567,46.471,9.955,51.966,9.5,57.436ZM30.6,14.272a2,2,0,0,0,0,3.99A2,2,0,0,0,30.6,14.272Zm22.928-.167a2,2,0,0,0,0,3.99A2,2,0,0,0,53.526,14.106Z" transform="translate(0 -0.313)"/>
</svg>
