<svg xmlns="http://www.w3.org/2000/svg" fill="#ff0000" width="478.781" height="612" viewBox="0 0 478.781 612">
  <defs>
    <style>
      .cls-1 {
        fill-rule: evenodd;
      }
    </style>
  </defs>
  <path class="cls-1" d="M333.6,612a82.961,82.961,0,0,1-47.633-14.6l-0.864-.622c-0.359-.272-12.105-9-32.076-9-12.5,0-25.586,3.458-38.914,10.277-4.044,2.478-22.705,13-46.536,13-19.544,0-37.362-6.78-52.958-20.155C89.926,569.719,8.715,490.353.665,358.14-3,297.938,16.59,240.311,54.408,200.041c34.306-36.541,79.766-52.927,123.2-44.224a216.143,216.143,0,0,1,64.84,23.564c16.751-8.4,58.35-26.624,103.646-26.624,54.112,0,96.178,26.284,121.638,76l5.771,11.276-10.34,7.3c-0.543.378-56.119,40.416-55.917,88.836,0.107,26.4,17.216,51.7,50.873,75.208a48.874,48.874,0,0,1,20.048,31.48C489,482.5,414.279,579.459,369.506,604.616l-1.1.563A89.654,89.654,0,0,1,333.6,612Zm-30.951-38.483a54.431,54.431,0,0,0,30.951,9.315,64.267,64.267,0,0,0,22.386-4.041c46.14-26.5,98.747-111.621,94.189-128.046l-0.571-2.351a19.726,19.726,0,0,0-8.119-13.093c-41.939-29.285-63.249-62.641-63.336-99.151-0.126-48.944,38.661-88.068,57.856-104.435-20.524-33.043-50.719-49.789-89.912-49.789-49.884,0-96.381,26.546-96.847,26.818l-7.653,4.428-7.459-4.769c-28.68-18.357-61.387-23.854-61.717-23.9a92.627,92.627,0,0,0-18.3-1.866c-28,0-55.888,13.278-78.516,37.386-31.87,33.936-49.019,84.9-45.9,136.342,7.352,120.764,81.338,193.085,103.841,212.377,10.175,8.722,21.629,13.152,34.034,13.152a64.684,64.684,0,0,0,31.406-8.733l1.281-.758c17.663-9.149,35.412-13.781,52.764-13.781C281.236,558.618,298.956,570.729,302.651,573.516ZM240.043,155.779a14.545,14.545,0,0,1-14.54-14.192C225.387,137.518,224.2,41.33,343.951.429a14.537,14.537,0,0,1,19.156,12.151c0.136,1.127,11.222,112.865-119.825,142.831A14.717,14.717,0,0,1,240.043,155.779ZM333.32,36.007c-53.016,24.506-70.358,62.154-76.013,85.087C314.61,100.891,329.644,60.513,333.32,36.007Z" transform="translate(-0.219)"/>
</svg>
